<svg xmlns="http://www.w3.org/2000/svg" viewBox="0 0 500 500"><defs><style>.cls-1{fill:#17a398;}.cls-2{fill:#d3c6b6;}.cls-3{fill:#bfb2a1;}.cls-4{fill:#e2d6c7;}.cls-5{fill:#d1a36b;}.cls-6{fill:#ffdbac;}.cls-7{fill:#5a3825;}.cls-8{fill:#212121;}.cls-9{fill:#fbfbfb;}.cls-10{fill:#d1908e;}.cls-11{fill:none;stroke:#212121;stroke-miterlimit:10;stroke-width:3px;}.cls-12{fill:#3d2314;}</style></defs><g id="Background"><circle class="cls-1" cx="250" cy="250" r="250"/></g><g id="Clothes"><polygon class="cls-2" points="385 392 362 480 359.45 500 140.55 500 138 480 115 392 197.34 379 302.66 379 385 392"/><polygon class="cls-3" points="362 480 372.3 500 405.43 500 440 483 385 392 362 480"/><path class="cls-3" d="M294.57,371.69s-1,2.78-2.69,7.31l-.42,1.11-.44,1.14c-.72,1.88-1.55,4-2.46,6.25-.13.31-.26.62-.38.94-.68,1.67-1.41,3.43-2.17,5.26-.22.52-.45,1.05-.67,1.58-.83,1.94-1.7,4-2.61,6-.17.38-.34.77-.52,1.16-.53,1.2-1.08,2.41-1.65,3.64-.26.57-.53,1.14-.8,1.72-3,6.38-6.28,12.91-9.76,18.92-4.95,8.6-10.27,16.16-15.54,20.79l-.73.61-.75.61-.74.55h0a19.4,19.4,0,0,1-2.22,1.4l0,0-.55-.31a18.29,18.29,0,0,1-1.64-1.07h0l-.74-.55-.75-.61-.73-.61c-5.27-4.63-10.59-12.19-15.54-20.79-3.48-6-6.78-12.54-9.76-18.92-.27-.58-.54-1.15-.8-1.72-.57-1.23-1.12-2.44-1.65-3.64-.18-.39-.35-.78-.52-1.16-.91-2-1.78-4.06-2.61-6-.22-.53-.45-1.06-.67-1.58-.76-1.83-1.49-3.59-2.17-5.26-.12-.32-.25-.63-.38-.94-.91-2.27-1.74-4.37-2.46-6.25l-.44-1.14-.42-1.11c-1.72-4.53-2.69-7.31-2.69-7.31Z"/><path class="cls-3" d="M250,450.67l-.55-.31a18.29,18.29,0,0,1-1.64-1.07C249,450,249.8,450.55,250,450.67Z"/><path class="cls-4" d="M301.22,450.69A41.83,41.83,0,0,0,270,443a51.24,51.24,0,0,0-17.76,6.24l.74-.55.75-.61.73-.61c5.27-4.63,10.59-12.19,15.54-20.79,3.48-6,6.78-12.54,9.76-18.92.27-.58.54-1.15.8-1.72.57-1.23,1.12-2.44,1.65-3.64.18-.39.35-.78.52-1.16.91-2,1.78-4.06,2.61-6,.22-.53.45-1.06.67-1.58.76-1.83,1.49-3.59,2.17-5.26.12-.32.25-.63.38-.94.91-2.27,1.74-4.37,2.46-6.25l.44-1.14.42-1.11H208.12l.42,1.11.44,1.14c.72,1.88,1.55,4,2.46,6.25.13.31.26.62.38.94.68,1.67,1.41,3.43,2.17,5.26.22.52.45,1.05.67,1.58.83,1.94,1.7,4,2.61,6,.17.38.34.77.52,1.16.53,1.2,1.08,2.41,1.65,3.64.26.57.53,1.14.8,1.72,3,6.38,6.28,12.91,9.76,18.92,4.95,8.6,10.27,16.16,15.54,20.79l.73.61.75.61.74.55A51.24,51.24,0,0,0,230,443a41.83,41.83,0,0,0-31.22,7.65s-6.22-51.11-1.44-71.69c.79-3.38,1.87-5.94,3.33-7.31h98.66c1.46,1.37,2.54,3.93,3.33,7.31C307.44,399.58,301.22,450.69,301.22,450.69Z"/><path class="cls-4" d="M301.22,450.69A41.83,41.83,0,0,0,270,443a51.24,51.24,0,0,0-17.76,6.24l.74-.55.75-.61.73-.61c5.27-4.63,10.59-12.19,15.54-20.79,3.48-6,6.78-12.54,9.76-18.92.27-.58.54-1.15.8-1.72.57-1.23,1.12-2.44,1.65-3.64.18-.39.35-.78.52-1.16.91-2,1.78-4.06,2.61-6,.22-.53.45-1.06.67-1.58.76-1.83,1.49-3.59,2.17-5.26.12-.32.25-.63.38-.94.91-2.27,1.74-4.37,2.46-6.25l.44-1.14.42-1.11H208.12l.42,1.11.44,1.14c.72,1.88,1.55,4,2.46,6.25.13.31.26.62.38.94.68,1.67,1.41,3.43,2.17,5.26.22.52.45,1.05.67,1.58.83,1.94,1.7,4,2.61,6,.17.38.34.77.52,1.16.53,1.2,1.08,2.41,1.65,3.64.26.57.53,1.14.8,1.72,3,6.38,6.28,12.91,9.76,18.92,4.95,8.6,10.27,16.16,15.54,20.79l.73.61.75.61.74.55A51.24,51.24,0,0,0,230,443a41.83,41.83,0,0,0-31.22,7.65s-6.22-51.11-1.44-71.69c.79-3.38,1.87-5.94,3.33-7.31h98.66c1.46,1.37,2.54,3.93,3.33,7.31C307.44,399.58,301.22,450.69,301.22,450.69Z"/><path class="cls-3" d="M291.88,379l-.42,1.11-.44,1.14c-.72,1.88-1.55,4-2.46,6.25-.13.31-.26.62-.38.94-.68,1.67-1.41,3.43-2.17,5.26-.22.52-.45,1.05-.67,1.58-.83,1.94-1.7,4-2.61,6-.17.38-.34.77-.52,1.16-.53,1.2-1.08,2.41-1.65,3.64-.12.27-.25.54-.38.82l-.42.9c-3,6.38-6.28,12.91-9.76,18.92-4.95,8.6-10.27,16.16-15.54,20.79l-.73.61-.75.61-.74.55h0a19.4,19.4,0,0,1-2.22,1.4l0,0-.55-.31a18.29,18.29,0,0,1-1.64-1.07h0l-.74-.55-.75-.61-.73-.61c-5.27-4.63-10.59-12.19-15.54-20.79-3.48-6-6.78-12.54-9.76-18.92l-.42-.9c-.13-.28-.26-.55-.38-.82-.57-1.23-1.12-2.44-1.65-3.64-.18-.39-.35-.78-.52-1.16-.91-2-1.78-4.06-2.61-6-.22-.53-.45-1.06-.67-1.58-.76-1.83-1.49-3.59-2.17-5.26-.12-.32-.25-.63-.38-.94-.91-2.27-1.74-4.37-2.46-6.25l-.44-1.14-.42-1.11Z"/><polygon class="cls-3" points="138 480 127.7 500 94.57 500 60 483 115 392 138 480"/><rect class="cls-4" x="247" y="448" width="6" height="30"/></g><g id="Arms"><polygon class="cls-5" points="94.57 500 70.44 500 73.71 489.74 94.57 500"/><polygon class="cls-5" points="405.69 500 429.82 500 426.56 489.74 405.69 500"/></g><g id="Neck"><polygon class="cls-5" points="270 344 270 367.84 230 360.79 230 344 270 344"/><path class="cls-6" d="M280.18,406.9l-.42.9c-3,6.38-6.28,12.91-9.76,18.92-4.95,8.6-10.27,16.16-15.54,20.79l-.73.61-.75.61-.74.55h0a19.4,19.4,0,0,1-2.22,1.4l0,0-.55-.31a18.29,18.29,0,0,1-1.64-1.07h0l-.74-.55-.75-.61-.73-.61c-5.27-4.63-10.59-12.19-15.54-20.79-3.48-6-6.78-12.54-9.76-18.92l-.42-.9A93.12,93.12,0,0,1,230,404.11V348h40v56.11A93.12,93.12,0,0,1,280.18,406.9Z"/><polygon class="cls-5" points="270 348 270 368.72 230 361.67 230 348 270 348"/></g><g id="Face"><path class="cls-6" d="M250,350h0A100,100,0,0,1,150,250V100H350V250A100,100,0,0,1,250,350Z"/></g><g id="Eyes"><circle class="cls-7" cx="210.5" cy="217.5" r="7.5"/><circle class="cls-7" cx="290.5" cy="217.5" r="7.5"/></g><g id="Ears_Nose" data-name="Ears &amp; Nose"><rect class="cls-5" x="242" y="228" width="17" height="45" rx="8.5"/><path class="cls-5" d="M375,247.5a37.51,37.51,0,0,1-31.09,36.95A99.81,99.81,0,0,0,350,250V212.14A37.5,37.5,0,0,1,375,247.5Z"/><path class="cls-5" d="M125,247.47a37.51,37.51,0,0,0,31.09,37A99.81,99.81,0,0,1,150,250V212.11A37.5,37.5,0,0,0,125,247.47Z"/></g><g id="Mouth"><path class="cls-8" d="M294.57,301a47.44,47.44,0,0,1-11.48,18.59l-.55.54a47.48,47.48,0,0,0-66.07,0,47.21,47.21,0,0,1-12-19.12Z"/><path class="cls-9" d="M297,286a47.11,47.11,0,0,1-2.43,15H204.43A47.11,47.11,0,0,1,202,286Z"/><path class="cls-10" d="M282.54,320.13a47.48,47.48,0,0,1-66.07,0,47.48,47.48,0,0,1,66.07,0Z"/></g><g id="Glasses"><circle class="cls-11" cx="210.5" cy="217.5" r="27"/><circle class="cls-11" cx="290.5" cy="217.5" r="27"/><path class="cls-11" d="M236.44,210s11.06-8.5,27.06,0"/></g><g id="Hair"><path class="cls-12" d="M411.14,190.89a32.51,32.51,0,0,1-36.82,49.48,37.49,37.49,0,0,0-9.26-18.31,20,20,0,0,1-25.87-16.29c-1.54.15-3.11.23-4.69.23a47.51,47.51,0,0,1-46.34-37c-.38,0-.77,0-1.16,0a19.94,19.94,0,0,1-14.14-5.86l-1.23.66-.05,0c-.41.21-.82.42-1.24.62s-.93.43-1.4.63l-.82.35c-.59.24-1.19.48-1.79.7l-1.09.38-1.11.36-1,.31c-1.38.4-2.79.73-4.22,1-.4.08-.79.15-1.19.21-.93.15-1.88.28-2.83.37l-.74.07-.89.07-.3,0-.83,0q-.43,0-.87,0L250,169l-1.23,0q-.44,0-.87,0l-.83,0-.3,0-.89-.07-.74-.07c-1-.09-1.9-.22-2.83-.37-.4-.06-.79-.13-1.19-.21-1.43-.27-2.84-.6-4.22-1l-1-.31-1.11-.36-1.09-.38c-.6-.22-1.2-.46-1.79-.7l-.82-.35-1.4-.63-1.24-.62,0,0-1.23-.66A19.94,19.94,0,0,1,213,169c-.39,0-.78,0-1.16,0a47.51,47.51,0,0,1-46.34,37c-1.58,0-3.15-.08-4.69-.23a20,20,0,0,1-25.87,16.29,37.49,37.49,0,0,0-9.26,18.31,32.5,32.5,0,0,1-36.82-49.48,20,20,0,0,1,8.53-35.56,30,30,0,0,1,8.93-36.69,47.69,47.69,0,0,1,7.18-10.25,47.52,47.52,0,0,1,65.11-50.81,47.68,47.68,0,0,1,11.09-6.71A47.55,47.55,0,0,1,250,27.33a47.55,47.55,0,0,1,60.3,23.54,47.68,47.68,0,0,1,11.09,6.71,47.52,47.52,0,0,1,65.11,50.81,47.69,47.69,0,0,1,7.18,10.25,30,30,0,0,1,8.93,36.69,20,20,0,0,1,8.53,35.56Z"/></g></svg>