<?xml version="1.0" encoding="UTF-8"?>
<!-- Created with Inkscape (http://www.inkscape.org/) -->
<svg width="682.67" height="682.67" version="1.1" viewBox="0 0 682.67 682.67" xmlns="http://www.w3.org/2000/svg">
 <g transform="matrix(1.3333 0 0 -1.3333 0 682.67)">
  <g transform="translate(28.85 512)">
   <path d="m0 0 43.501-462.36 183.68-49.645h0.526l183.68 49.645 43.502 462.36zm227.45-39.773h186.43l-36.851-391.66-149.58-40.419z" fill="#264de4"/>
  </g>
  <g transform="translate(442.73 472.23)">
   <path d="m0 0-36.852-391.66-149.58-40.419v432.08z" fill="#2965f1"/>
  </g>
  <g transform="translate(112.32 418.34)">
   <path d="m0 0h284.48l-24.738-287.21-116.13-33.726-117.38 32.478-7.493 88.66h56.193l3.746-43.706 64.935-18.731 62.437 18.731 7.492 74.924-197.3-2.497-4.994 58.691 207.29-2.498 3.746 57.442-217.28 2.498z" fill="#fff"/>
  </g>
 </g>
</svg>
