<svg xmlns="http://www.w3.org/2000/svg" viewBox="0 0 96 96"><defs><style>.cls-1{fill:#fff;}</style></defs><g id="Layer_2" data-name="Layer 2"><g id="Calque_1" data-name="Calque 1"><rect class="cls-1" width="96" height="96"/><path d="M80.25,52.56l-.09-.44A33,33,0,0,0,78.5,46.7h0c-.24-.61-.51-1.2-.79-1.79-.12-.26-.25-.52-.38-.78s-.19-.37-.29-.56a32.16,32.16,0,0,0-2.1-3.41,31.31,31.31,0,0,0-2.85-3.54q-.41-.44-.84-.87L71,35.52a32.87,32.87,0,0,0-6.29-4.83c-.36-.22-.72-.42-1.09-.62a32.39,32.39,0,0,0-8.38-3.15c-.76-.17-1.52-.32-2.29-.43a32.89,32.89,0,0,0-10,0c-.77.11-1.54.26-2.29.43a32.62,32.62,0,0,0-8.38,3.15c-.37.19-.72.4-1.08.61A33.39,33.39,0,0,0,25,35.52l-.22.22q-.43.43-.84.87a31.31,31.31,0,0,0-2.85,3.54A32.16,32.16,0,0,0,19,43.56l-.29.55c-.13.26-.26.52-.38.78-.28.59-.55,1.18-.79,1.8h0a33,33,0,0,0-1.66,5.42l-.09.44A33.33,33.33,0,0,0,15.11,59c0,.89,0,1.76.11,2.63,0,.26,0,.52.06.77h0a32.89,32.89,0,0,0,65.43,0h0c0-.25.05-.51.06-.77.08-.87.11-1.74.11-2.63A33.33,33.33,0,0,0,80.25,52.56ZM37,59.86a7.73,7.73,0,1,1,7.72-7.73A7.74,7.74,0,0,1,37,59.86Zm22,0a7.73,7.73,0,1,1,7.73-7.73A7.73,7.73,0,0,1,59,59.86Z"/><circle cx="16.29" cy="41.55" r="10.58"/><circle cx="12.76" cy="52.13" r="10.58"/><circle cx="10.58" cy="38.7" r="10.58"/><circle cx="16.29" cy="26.11" r="10.58"/><circle cx="33.91" cy="15.53" r="10.58"/><circle cx="22.49" cy="20.4" r="10.58"/><path d="M48,4.12V25.27a10.46,10.46,0,0,1-4.57-1,10,10,0,0,1-2-1.25,10.58,10.58,0,0,1-3.85-6.42,10.33,10.33,0,0,1-.16-1.87A10.58,10.58,0,0,1,48,4.12Z"/><circle cx="21.15" cy="33.83" r="10.58"/><circle cx="30.22" cy="28.12" r="10.58"/><path d="M48,17.3V34.93a8.49,8.49,0,0,1-1.06.6,10.47,10.47,0,0,1-4.8,1.16,10.68,10.68,0,0,1-4.51-1h0a10.59,10.59,0,0,1-6-9.57v-.26a.1.1,0,0,1,0,0,10.53,10.53,0,0,1,1.47-5.13h0a10.07,10.07,0,0,1,1.67-2.12,11.09,11.09,0,0,1,2.84-2,10.54,10.54,0,0,1,4.31-1h.25a10.49,10.49,0,0,1,2.34.26A10.62,10.62,0,0,1,48,17.3Z"/><path d="M48,34.93a8.49,8.49,0,0,1-1.06.6"/><path d="M48,18.3V34.93a8.49,8.49,0,0,1-1.06.6A10.55,10.55,0,0,1,48,18.3Z"/><path d="M48,6V25.13a10.78,10.78,0,0,1-3.73-2.91,10.23,10.23,0,0,1-1.07-1.61h0a10.45,10.45,0,0,1,0-10.13h0A10.54,10.54,0,0,1,48,6Z"/><circle cx="79.71" cy="41.56" r="10.58"/><circle cx="83.24" cy="52.13" r="10.58"/><circle cx="85.42" cy="38.7" r="10.58"/><circle cx="79.71" cy="26.11" r="10.58"/><circle cx="62.08" cy="15.53" r="10.58"/><circle cx="73.5" cy="20.4" r="10.58"/><path d="M48,4.12V25.27a10.42,10.42,0,0,0,4.56-1,9.49,9.49,0,0,0,2-1.25,10.59,10.59,0,0,0,3.86-6.42,11.33,11.33,0,0,0,.15-1.87A10.57,10.57,0,0,0,48,4.12Z"/><circle cx="74.84" cy="33.83" r="10.58"/><circle cx="65.77" cy="28.12" r="10.58"/><path d="M48,17.3V34.93a8.37,8.37,0,0,0,1,.6,10.53,10.53,0,0,0,4.8,1.16,10.64,10.64,0,0,0,4.51-1h0a10.61,10.61,0,0,0,6.05-9.57v-.26s0,0,0,0a10.32,10.32,0,0,0-1.47-5.13h0a10.41,10.41,0,0,0-1.67-2.12,11.09,11.09,0,0,0-2.84-2,10.63,10.63,0,0,0-4.32-1h-.25a10.62,10.62,0,0,0-2.34.26A10.48,10.48,0,0,0,48,17.3Z"/><path d="M48,34.93a8.37,8.37,0,0,0,1,.6"/><path d="M48,18.3V34.93a8.37,8.37,0,0,0,1,.6A10.56,10.56,0,0,0,48,18.3Z"/><path d="M48,6V25.13a10.74,10.74,0,0,0,3.72-2.91,9.64,9.64,0,0,0,1.08-1.61h0a10.52,10.52,0,0,0,0-10.13h0A10.59,10.59,0,0,0,48,6Z"/></g></g></svg>