<?xml version="1.0" encoding="UTF-8"?>
<!-- Created with Inkscape (http://www.inkscape.org/) -->
<svg width="682.67" height="682.67" version="1.1" viewBox="0 0 682.67 682.67" xmlns="http://www.w3.org/2000/svg">
 <defs>
  <clipPath id="clipPath342">
   <path d="m0 512h512v-512h-512z"/>
  </clipPath>
 </defs>
 <g transform="matrix(1.3333 0 0 -1.3333 0 682.67)">
  <g clip-path="url(#clipPath342)">
   <g transform="translate(273.66 323.45)">
    <path d="m0 0v-0.11l-0.07 0.07c0.02 0.01 0.04 0.02 0.07 0.04" fill="#f05033"/>
   </g>
   <g transform="translate(500.27 226.5)">
    <path d="m0 0-218.03-215.14c-15.491-15.29-40.45-15.12-55.741 0.37l-215.14 218.03c-15.29 15.49-15.119 40.45 0.37 55.74l150.88 148.89 58.801-58.8c-2.191-4.92-3.411-10.36-3.411-16.09 0-16.26 9.811-30.22 23.84-36.28v-140.44c-14.029-6.06-23.84-20.02-23.84-36.28 0-21.82 17.681-39.5 39.5-39.5 21.821 0 39.5 17.68 39.5 39.5 0 16.06-9.58 29.88-23.339 36.05v140.79l53.75-53.75c-2.191-4.92-3.411-10.36-3.411-16.09 0-21.82 17.68-39.5 39.5-39.5 21.821 0 39.5 17.68 39.5 39.5s-17.679 39.5-39.5 39.5c-4.36 0-8.559-0.71-12.48-2.02l-56.039 56.04c1.31 3.92 2.019 8.12 2.019 12.48 0 21.82-17.679 39.5-39.5 39.5-4.359 0-8.56-0.71-12.48-2.02l-59.75 59.75 44.49 43.91c15.49 15.29 40.45 15.12 55.74-0.37l215.14-218.03c15.29-15.49 15.12-40.45-0.37-55.74" fill="#f05033"/>
   </g>
   <g transform="translate(273.66 323.45)" fill="#f05033">
    <path d="m0 0v-0.11l-0.07 0.07c0.02 0.01 0.04 0.02 0.07 0.04"/>
    <path d="m0 0v-0.11l-0.07 0.07c0.02 0.01 0.04 0.02 0.07 0.04"/>
   </g>
  </g>
 </g>
</svg>
