<?xml version="1.0" encoding="UTF-8"?>
<!-- Created with Inkscape (http://www.inkscape.org/) -->
<svg width="682.67" height="682.67" version="1.1" viewBox="0 0 682.67 682.67" xmlns="http://www.w3.org/2000/svg">
 <g transform="matrix(1.3333 0 0 -1.3333 0 682.67)">
  <g transform="translate(28.582 512)">
   <path d="m0 0 43.495-462.29 183.92-49.709 183.92 49.709 43.495 462.29zm227.42-39.767h186.41l-36.847-391.6-149.56-40.414z" fill="#e54c21"/>
  </g>
  <g transform="translate(442.41 472.23)">
   <path d="m0 0-36.847-391.6-149.56-40.414v432.02z" fill="#f16524"/>
  </g>
  <g transform="translate(396.43 416.31)">
   <path d="m0 0h-281.34l15.402-169.01h193.84l-4.951-73.32-63.379-18.582-62.135 18.582-4.972 44.738h-55.922l8.699-89.475 114.09-31.617 114.57 31.617 16.156 173.98-205.05 1.242-4.971 55.923h213.75z" fill="#fff"/>
  </g>
 </g>
</svg>
