<svg xmlns="http://www.w3.org/2000/svg" viewBox="0 0 96 96"><defs><style>.cls-1{fill:#212121;}.cls-2{fill:#fff;}</style></defs><g id="Logo"><rect class="cls-1" width="96" height="96" rx="9"/></g><g id="in"><rect class="cls-2" x="14" y="35" width="16" height="50" rx="3.04"/><path class="cls-2" d="M86,57V82a3,3,0,0,1-3,3H73a3,3,0,0,1-3-3V57s0-9-8.45-9S53,57,53,57V82a3,3,0,0,1-3,3H40a3,3,0,0,1-3-3V38a3,3,0,0,1,3-3H50a3,3,0,0,1,3,3v3a17.24,17.24,0,0,1,14.22-6C87.44,35,86,57,86,57Z"/><circle class="cls-2" cx="22" cy="21" r="10"/></g></svg>