<?xml version="1.0" encoding="UTF-8"?>
<!-- Created with Inkscape (http://www.inkscape.org/) -->
<svg width="682.67" height="682.67" version="1.1" viewBox="0 0 682.67 682.67" xmlns="http://www.w3.org/2000/svg">
 <defs>
  <clipPath id="clipPath785">
   <path d="m0 512h512v-512h-512z"/>
  </clipPath>
  <clipPath id="clipPath797">
   <path d="m0 512h512v-512h-512z"/>
  </clipPath>
  <clipPath id="clipPath809">
   <path d="m0 512h512v-512h-512z"/>
  </clipPath>
  <clipPath id="clipPath821">
   <path d="m0 512h512v-512h-512z"/>
  </clipPath>
 </defs>
 <g transform="matrix(1.3333 0 0 -1.3333 0 682.67)">
  <g clip-path="url(#clipPath785)">
   <g transform="translate(512,208)">
    <path d="m0 0v-72c0-53.02-114.62-96-256-96s-256 42.98-256 96v72c0-12.73 6.61-24.88 18.61-36 15.03-13.92 38.51-26.22 68.07-36 45.13-14.94 104.4-24 169.32-24s124.19 9.06 169.32 24c29.56 9.78 53.04 22.08 68.07 36 12 11.12 18.61 23.27 18.61 36" fill="#428db2"/>
   </g>
  </g>
  <g clip-path="url(#clipPath797)">
   <g transform="translate(512,312)">
    <path d="m0 0v-72c0-53.02-114.62-96-256-96s-256 42.98-256 96v72c0-12.73 6.61-24.88 18.61-36 15.03-13.92 38.51-26.22 68.07-36 45.13-14.94 104.4-24 169.32-24s124.19 9.06 169.32 24c29.56 9.78 53.04 22.08 68.07 36 12 11.12 18.61 23.27 18.61 36" fill="#428db2"/>
   </g>
  </g>
  <g clip-path="url(#clipPath809)">
   <g transform="translate(512,416)">
    <path d="m0 0v-72c0-53.02-114.62-96-256-96s-256 42.98-256 96v72c0 53.02 114.62 96 256 96s256-42.98 256-96" fill="#428db2"/>
   </g>
  </g>
  <g clip-path="url(#clipPath821)">
   <g transform="translate(177.07 18.923)">
    <path d="m0 0 0.314 49.359-16.035-35.794c-0.537-1.588-4.928-13.36-17.256-13.561-12.404 0.201-16.799 11.973-17.336 13.561l-16.036 35.794 0.315-49.359h-19.54v63.157c-3e-3 0.364 0.061 3.804 3.113 6.877 2.984 3.006 7.664 4.529 13.911 4.529 15.362 0 18.758-9.198 19.204-10.677l16.329-43.107 16.328 43.107c0.447 1.479 3.842 10.677 19.205 10.677 6.246 0 10.926-1.523 13.91-4.528 3.052-3.074 3.116-6.514 3.114-6.895v-63.14z"/>
   </g>
   <g transform="translate(179.59 95.986)">
    <path d="m0 0c-16.53 0-20.788-10.004-21.548-12.306l-13.985-36.921-13.986 36.921c-0.76 2.302-5.018 12.306-21.547 12.306-6.938 0-12.215-1.772-15.685-5.268-3.687-3.712-3.845-7.877-3.839-8.673v-65.622h24.555l-0.032 5.032-0.223 34.964 11.138-24.86c0.813-2.311 5.874-14.91 19.537-15.132l0.082-2e-3 0.081 2e-3c13.664 0.222 18.724 12.821 19.538 15.132l11.137 24.86-0.223-34.964-0.032-5.032h24.555v65.657c6e-3 0.761-0.152 4.926-3.838 8.638-3.471 3.496-8.748 5.268-15.685 5.268m0-5c14.587 0 14.523-8.906 14.523-8.906v-60.657h-14.523l0.374 58.723-20.946-46.754s-3.68-11.782-14.961-11.966c-11.281 0.184-14.962 11.966-14.962 11.966l-20.945 46.754 0.374-58.723h-14.524v60.657s-0.064 8.906 14.524 8.906c14.587 0 16.831-8.97 16.831-8.97l18.702-49.372 18.701 49.372s2.245 8.97 16.832 8.97" fill="#fff"/>
   </g>
   <g transform="translate(205.52 -1.5)">
    <path d="m0 0v14.95h50.75c3.828 0 4.375 2.224 4.448 2.987v3.234h-33.996c-2.67 0-9.166 2.237-13.902 4.787-5.83 3.139-7.196 9.637-7.251 9.912l-0.049 0.243v36.813h19.629l-4e-3 -2.504s-0.038-23.562-0.038-32.537c0-1.385 3.391-2.722 5.912-3.111h29.857l-0.017 38.152h19.979v-56.736c0-11.024-18.742-15.637-20.879-16.127l-0.275-0.063z"/>
   </g>
   <g transform="translate(283.34 73.926)">
    <path d="m0 0h-24.981l2e-3 -5.003 0.015-33.148h-27.148c-1.343 0.235-2.911 0.781-3.619 1.247 2e-3 9.401 0.038 31.895 0.038 31.895l8e-3 5.009h-24.633v-39.562l0.098-0.487c0.162-0.807 1.779-7.992 8.516-11.62 4.561-2.456 11.712-5.086 15.087-5.086h31.497v-0.517c-0.067-0.271-0.335-0.704-1.948-0.704h-53.25v-19.95h56.946l0.552 0.126c0.215 0.05 5.33 1.237 10.501 3.698 10.181 4.848 12.319 10.76 12.319 14.867v54.235zm-5-5v-54.235c0-9.351-18.937-13.691-18.937-13.691h-51.381v9.95h48.25c6.733 0 6.948 5.393 6.948 5.393v5.828h-36.497c-1.87 0-7.854 1.87-12.716 4.488-4.863 2.619-5.985 8.203-5.985 8.203v34.064h14.625s-0.038-23.564-0.038-32.541c0-4.488 8.229-5.61 8.229-5.61h32.541l-0.018 38.151h14.979" fill="#fff"/>
   </g>
   <g transform="translate(287.06 19.073)">
    <path d="m0 0v14.534l2.459 0.041c0.338 5e-3 33.97 0.561 42.494 0.561 2.252 0 3.877 0.47 4.698 1.36 0.745 0.806 0.673 1.822 0.67 1.865l-0.019 0.155 6e-3 0.104v8.603c0 1.503-4.006 2.601-6.907 2.737h-19.767c-21.843 0-23.607 16.519-23.623 16.703h-0.011v10.404c0 12.06 13.758 15.694 21.032 15.93l49.05 1e-3v-14.799h-45.14c-4.142 0-4.863-1.747-4.98-2.2v-9.139c0-2.043 4.258-2.957 5.529-3.111h22.268c21.162 0 22.28-12.413 22.317-12.941l6e-3 -0.176v-15.565c0-6.27-3.738-10.871-10.81-13.306-4.969-1.712-10.003-1.761-10.562-1.761z"/>
   </g>
   <g transform="translate(359.64 94.571)">
    <path d="m0 0h-51.55l-0.081-3e-3c-8.11-0.264-23.451-4.453-23.451-18.428v-10.404h2.509l-2.489-0.226c0.596-6.564 6.821-18.977 26.114-18.977h19.703c1.593-0.087 3.558-0.538 4.471-0.998v-8.152l0.01-0.084c-4e-3 -0.021-8e-3 -0.04-0.013-0.049-5e-3 0-0.609-0.541-2.852-0.541-8.546 0-41.151-0.539-42.535-0.562l-4.918-0.082v-19.492h51.181c8.895 0 23.901 3.7 23.901 17.567v15.741l-0.012 0.175c-0.044 0.623-1.345 15.266-24.811 15.266h-22.118c-1.152 0.154-2.578 0.617-3.179 1.022v8.005c0.317 0.174 1.079 0.423 2.48 0.423h47.64v5 9.799zm-5-5v-9.799h-42.64c-7.106 0-7.48-4.488-7.48-4.488v-9.351c0-4.863 7.892-5.611 7.892-5.611h22.405c19.075 0 19.823-10.617 19.823-10.617v-15.565c0-12.423-18.04-12.567-18.872-12.567h-46.21v9.575s33.851 0.561 42.453 0.561c8.603 0 7.855 5.984 7.855 5.984v8.603c0 4.863-9.351 5.237-9.351 5.237h-19.823c-19.824 0-21.134 14.43-21.134 14.43v-0.227 10.404c0 12.827 18.613 13.431 18.613 13.431h46.469" fill="#fff"/>
   </g>
   <g transform="translate(382.76 38.441)">
    <path d="m0 0c0-1.826 0.625-2.961 2.027-3.677 1.366-0.697 3.024-0.752 3.5-0.752 0.129 0 0.309 9e-3 0.309 9e-3l9.073 1e-3 -11.622 10.847h24.158l10.489-9.404c0.646 0.771 0.825 2.693 0.829 3.118v33.521c0 4.44-3.488 5.371-6.412 5.371-0.209 0-0.344-8e-3 -0.378-0.01l-0.185-6e-3h-24.936c-6.001 0-6.757-3.557-6.852-4.433zm42.508-29.43-11.449 10.061h-29.063c-8.052 0-14.151 2.117-18.13 6.292-4.588 4.814-4.596 10.655-4.575 11.444v37.54c0 17.228 20.862 17.726 23.241 17.726l31.908-2e-3c7.974 0 14.054-2.066 18.074-6.14 4.74-4.803 4.716-10.624 4.714-10.869v-38.866c0-6.409-3.868-10.348-6.84-12.428l16.493-14.758z"/>
   </g>
   <g transform="translate(388.29 36.513)">
    <path d="m0 0c-3.027 0-3.027 1.207-3.027 1.929v3.743l3.718-3.471 2.349-2.191h-2.872l-0.08-9e-3zm26.634 38.46c0.041 2e-3 0.106 3e-3 0.189 3e-3 0.842 0 2.038-0.157 2.868-0.6 0.441-0.234 1.044-0.556 1.044-2.271v-31.783l-6.436 5.77-1.425 1.277h-25.901v25.449c0.171 0.854 0.987 2.141 4.351 2.141h25.187zm-29.63 19.602c-12.812 0-25.74-6.254-25.74-20.226v-37.498c-0.034-1.292 0.077-7.766 5.265-13.211 4.469-4.689 11.178-7.067 19.94-7.067h28.12l10.034-8.817 1.415-1.244h31.859l-9.752 8.726-9.43 8.437c2.967 2.84 5.485 6.991 5.485 12.523v38.884c4e-3 0.941-0.173 7.275-5.433 12.607-4.507 4.567-11.187 6.884-19.854 6.884h-31.659c-0.054 1e-3 -0.138 2e-3 -0.25 2e-3m2.996-63.062c0.249 0 0.393 0.01 0.393 0.01h15.332l-11.622 10.846h16.858l10.847-9.724c3.927 0 3.927 5.928 3.927 5.928v33.532c0 7.329-6.875 7.871-8.912 7.871-0.354 0-0.562-0.017-0.562-0.017h-24.937c-8.977 0-9.351-6.822-9.351-6.822v-34.695c0-6.505 6.367-6.929 8.027-6.929m-2.996 58.062c0.135 0 0.206-2e-3 0.206-2e-3h31.703c20.482 0 20.287-14.476 20.287-14.476v-38.899c0-8.603-8.602-11.969-8.602-11.969l14.213-12.717h-16.888l-11.449 10.061h-30.005c-20.939 0-20.205 15.197-20.205 15.197v37.579c0 14.794 18.575 15.226 20.74 15.226" fill="#fff"/>
   </g>
   <g transform="translate(467.22 19.297)">
    <path d="m0 0c-21.986 0-22.828 17.575-22.835 17.752l-1e-3 55.024h19.913v-54.754c0-3.269 6.698-3.307 6.766-3.307l43.633 1e-3v-14.716z"/>
   </g>
   <g transform="translate(466.8 94.574)">
    <path d="m0 0h-24.913v-57.525l3e-3 -0.083c0.017-0.541 0.272-5.422 3.597-10.312 3.056-4.497 9.308-9.857 21.736-9.857h49.975v19.715h-46.095l-0.048-1e-3c-1.747 0-3.64 0.482-4.254 0.921l-1e-3 52.142zm-5-5v-52.255c0-5.649 8.333-5.808 9.266-5.808 0.055 0 0.085 1e-3 0.085 1e-3h41.047v-9.715h-44.975c-19.823 0-20.336 15.336-20.336 15.336v52.441h14.913" fill="#fff"/>
   </g>
  </g>
 </g>
</svg>
