<svg xmlns="http://www.w3.org/2000/svg" viewBox="0 0 95.99 87.76"><g id="Layer_2" data-name="Layer 2"><g id="Calque_1" data-name="Calque 1"><path d="M80.25,48.44,80.16,48a33,33,0,0,0-1.66-5.42h0c-.24-.61-.51-1.2-.79-1.79-.12-.26-.25-.52-.38-.78s-.19-.37-.29-.56A32.16,32.16,0,0,0,74.94,36a31.31,31.31,0,0,0-2.85-3.54q-.41-.43-.84-.87L71,31.4a32.87,32.87,0,0,0-6.29-4.83c-.36-.22-.72-.42-1.09-.62a32.39,32.39,0,0,0-8.38-3.15c-.76-.17-1.52-.32-2.29-.43a32.89,32.89,0,0,0-10,0c-.77.11-1.54.26-2.29.43A32.62,32.62,0,0,0,32.34,26c-.37.19-.72.4-1.08.61A33.39,33.39,0,0,0,25,31.4l-.22.22q-.43.43-.84.87A31.31,31.31,0,0,0,21.05,36,32.16,32.16,0,0,0,19,39.44l-.29.55c-.13.26-.26.52-.38.78-.28.59-.55,1.18-.79,1.8h0A33,33,0,0,0,15.83,48l-.09.44a33.33,33.33,0,0,0-.63,6.44c0,.89,0,1.76.11,2.63,0,.26,0,.52.06.77h0a32.89,32.89,0,0,0,65.43,0h0c0-.25.05-.51.06-.77.08-.87.11-1.74.11-2.63A33.33,33.33,0,0,0,80.25,48.44ZM37,55.74A7.73,7.73,0,1,1,44.71,48,7.74,7.74,0,0,1,37,55.74Zm22,0A7.73,7.73,0,1,1,66.73,48,7.73,7.73,0,0,1,59,55.74Z"/><circle cx="16.29" cy="37.44" r="10.58"/><circle cx="12.76" cy="48.01" r="10.58"/><circle cx="10.58" cy="34.58" r="10.58"/><circle cx="16.29" cy="21.99" r="10.58"/><circle cx="33.91" cy="11.42" r="10.58"/><circle cx="22.49" cy="16.29" r="10.58"/><path d="M48,0V21.15a10.46,10.46,0,0,1-4.57-1,10,10,0,0,1-2-1.25,10.55,10.55,0,0,1-3.85-6.42,10.3,10.3,0,0,1-.16-1.86A10.58,10.58,0,0,1,48,0Z"/><circle cx="21.15" cy="29.72" r="10.58"/><circle cx="30.22" cy="24.01" r="10.58"/><path d="M48,13.18V30.81a8.49,8.49,0,0,1-1.06.6,10.47,10.47,0,0,1-4.8,1.16,10.68,10.68,0,0,1-4.51-1h0a10.58,10.58,0,0,1-6-9.57v-.26a0,0,0,0,1,0,0,10.53,10.53,0,0,1,1.47-5.13v0h0a10.34,10.34,0,0,1,1.67-2.12,11.34,11.34,0,0,1,2.84-2,10.87,10.87,0,0,1,4.31-1h.25a10.49,10.49,0,0,1,2.34.26A10.62,10.62,0,0,1,48,13.18Z"/><path d="M48,30.81a8.49,8.49,0,0,1-1.06.6"/><path d="M48,14.18V30.81a8.49,8.49,0,0,1-1.06.6A10.55,10.55,0,0,1,48,14.18Z"/><path d="M48,1.83V21a10.78,10.78,0,0,1-3.73-2.91,10.62,10.62,0,0,1-1.07-1.6v0a10.45,10.45,0,0,1,0-10.13h0A10.59,10.59,0,0,1,48,1.83Z"/><circle cx="79.71" cy="37.44" r="10.58"/><circle cx="83.24" cy="48.01" r="10.58"/><circle cx="85.42" cy="34.58" r="10.58"/><circle cx="79.71" cy="21.99" r="10.58"/><circle cx="62.08" cy="11.42" r="10.58"/><circle cx="73.5" cy="16.29" r="10.58"/><path d="M48,0V21.15a10.28,10.28,0,0,0,4.56-1,9.49,9.49,0,0,0,2-1.25,10.56,10.56,0,0,0,3.86-6.42,11.3,11.3,0,0,0,.15-1.86A10.57,10.57,0,0,0,48,0Z"/><circle cx="74.84" cy="29.72" r="10.58"/><circle cx="65.77" cy="24.01" r="10.58"/><path d="M48,13.18V30.81a8.37,8.37,0,0,0,1,.6,10.53,10.53,0,0,0,4.8,1.16,10.64,10.64,0,0,0,4.51-1h0A10.59,10.59,0,0,0,64.43,22v-.27s0,0,0,0a10.32,10.32,0,0,0-1.47-5.13v0h0a10.69,10.69,0,0,0-1.67-2.12,11.34,11.34,0,0,0-2.84-2,11,11,0,0,0-4.32-1h-.25a10.62,10.62,0,0,0-2.34.26A10.48,10.48,0,0,0,48,13.18Z"/><path d="M48,30.81a8.37,8.37,0,0,0,1,.6"/><path d="M48,14.18V30.81a8.37,8.37,0,0,0,1,.6,10.56,10.56,0,0,0-1-17.23Z"/><path d="M48,1.83V21a10.74,10.74,0,0,0,3.72-2.91,10,10,0,0,0,1.08-1.6v0a10.52,10.52,0,0,0,0-10.13h0A10.64,10.64,0,0,0,48,1.83Z"/></g></g></svg>