<?xml version="1.0" encoding="UTF-8" standalone="no"?>
<svg
   viewBox="0 0 36 36"
   fill="none"
   version="1.1"
   id="svg44"
   sodipodi:docname="github.svg"
   width="36"
   height="36"
   inkscape:version="1.2.1 (9c6d41e410, 2022-07-14)"
   xmlns:inkscape="http://www.inkscape.org/namespaces/inkscape"
   xmlns:sodipodi="http://sodipodi.sourceforge.net/DTD/sodipodi-0.dtd"
   xmlns="http://www.w3.org/2000/svg"
   xmlns:svg="http://www.w3.org/2000/svg">
  <defs
     id="defs48" />
  <sodipodi:namedview
     id="namedview46"
     pagecolor="#ffffff"
     bordercolor="#000000"
     borderopacity="0.25"
     inkscape:showpageshadow="2"
     inkscape:pageopacity="0.0"
     inkscape:pagecheckerboard="0"
     inkscape:deskcolor="#d1d1d1"
     showgrid="false"
     inkscape:zoom="16"
     inkscape:cx="2.90625"
     inkscape:cy="21.75"
     inkscape:window-width="2560"
     inkscape:window-height="1378"
     inkscape:window-x="0"
     inkscape:window-y="32"
     inkscape:window-maximized="1"
     inkscape:current-layer="svg44" />
  <path
     fillRule="evenodd"
     clipRule="evenodd"
     d="M 18,0 C 8.055,0 0,8.055 0,18 c 0,7.964999 5.1525,14.692499 12.3075,17.0775 0.9,0.1575 1.2375,-0.3825 1.2375,-0.855 0,-0.4275 -0.0225,-1.845001 -0.0225,-3.352501 C 9,31.7025 7.83,29.767499 7.47,28.754999 7.2675,28.237499 6.39,26.64 5.625,26.212499 4.995,25.875 4.095,25.0425 5.6025,25.02 c 1.4175,-0.0225 2.43,1.304999 2.7675,1.844999 1.62,2.7225 4.2075,1.9575 5.2425,1.485 0.1575,-1.17 0.63,-1.9575 1.1475,-2.4075 C 10.755,25.492499 6.57,23.94 6.57,17.055 c 0,-1.9575 0.6975,-3.5775 1.845,-4.8375 -0.18,-0.45 -0.81,-2.295001 0.18,-4.77 0,0 1.5075,-0.4725 4.95,1.845 1.44,-0.405 2.97,-0.6075 4.5,-0.6075 1.53,0 3.06,0.2025 4.5,0.6075 3.4425,-2.34 4.95,-1.845 4.95,-1.845 0.99,2.474999 0.36,4.32 0.18,4.77 1.1475,1.26 1.845,2.8575 1.845,4.8375 0,6.9075 -4.2075,8.437499 -8.2125,8.887499 0.6525,0.5625 1.215,1.642501 1.215,3.330001 0,2.407499 -0.0225,4.3425 -0.0225,4.95 0,0.4725 0.3375,1.035 1.2375,0.855 C 30.8475,32.6925 36,25.942499 36,18 36,8.055 27.945,0 18,0 Z"
     fill="#212121"
     id="path42"
     inkscape:label="github"
     style="stroke:none" />
</svg>
