<?xml version="1.0" encoding="UTF-8" standalone="no"?>
<svg
   viewBox="0 0 96 96"
   version="1.1"
   id="svg1121"
   sodipodi:docname="linkedin.svg"
   inkscape:version="1.2.1 (9c6d41e410, 2022-07-14)"
   xmlns:inkscape="http://www.inkscape.org/namespaces/inkscape"
   xmlns:sodipodi="http://sodipodi.sourceforge.net/DTD/sodipodi-0.dtd"
   xmlns="http://www.w3.org/2000/svg"
   xmlns:svg="http://www.w3.org/2000/svg">
  <defs
     id="defs1125" />
  <sodipodi:namedview
     id="namedview1123"
     pagecolor="#ffffff"
     bordercolor="#000000"
     borderopacity="0.25"
     inkscape:showpageshadow="2"
     inkscape:pageopacity="0.0"
     inkscape:pagecheckerboard="0"
     inkscape:deskcolor="#d1d1d1"
     showgrid="false"
     inkscape:zoom="4.1822917"
     inkscape:cx="75.198007"
     inkscape:cy="67.905354"
     inkscape:window-width="2560"
     inkscape:window-height="1378"
     inkscape:window-x="0"
     inkscape:window-y="32"
     inkscape:window-maximized="1"
     inkscape:current-layer="svg1121" />
  <path
     id="rect1111"
     style="fill:#212121;fill-opacity:1"
     d="M 9 0 C 4.014015 0 0 4.014015 0 9 L 0 87 C 0 91.985985 4.014015 96 9 96 L 87 96 C 91.985985 96 96 91.985985 96 87 L 96 9 C 96 4.014015 91.985985 0 87 0 L 9 0 z M 22 11 A 10 10 0 0 1 32 21 A 10 10 0 0 1 22 31 A 10 10 0 0 1 12 21 A 10 10 0 0 1 22 11 z M 17.039062 35 L 26.960938 35 C 28.645092 35 30 36.354908 30 38.039062 L 30 81.960938 C 30 83.645092 28.645092 85 26.960938 85 L 17.039062 85 C 15.354908 85 14 83.645092 14 81.960938 L 14 38.039062 C 14 36.354908 15.354908 35 17.039062 35 z M 40 35 L 50 35 A 3 3 0 0 1 53 38 L 53 41 A 17.24 17.24 0 0 1 67.220703 35 C 87.440683 35 86 57 86 57 L 86 82 A 3 3 0 0 1 83 85 L 73 85 A 3 3 0 0 1 70 82 L 70 57 C 70 57 70.000773 48 61.550781 48 C 53.10079 48 53 57 53 57 L 53 82 A 3 3 0 0 1 50 85 L 40 85 A 3 3 0 0 1 37 82 L 37 38 A 3 3 0 0 1 40 35 z "
     inkscape:label="linkedin" />
</svg>
